# xmcd
#
# Track frame offsets:
#	150
#	18295
#	40258
#	66313
#	78913
#	102323
#	121340
#	132333
#	162333
#	188425
#	209338
#
# Disc length: 3108 seconds
# Revision: 1
# Processed by: cddbd v1.5.2PL0 Copyright (c) Steve Scherf et al.
# Submitted via: dBpowerAMP V12.0
#
DISCID=8e0c220b
DTITLE=Howard Alden Trio - Snowy Morning Blues [dBP-LITE02-1-FLAC@]
DYEAR=1990
DGENRE=Jazz
TTITLE0=One Morning In May
TTITLE1=I'm Through With Love
TTITLE2=Bye-Ya
TTITLE3=Melancholia
TTITLE4=Sleepy Time Gal
TTITLE5=Le Sucrier Velour
TTITLE6=Dancers In Love
TTITLE7=Snowy Morning Blues
TTITLE8=Ask Me Now
TTITLE9=You Leave Me Breathless
TTITLE10=Swing 39
EXTD=
EXTT0=
EXTT1=
EXTT2=
EXTT3=
EXTT4=
EXTT5=
EXTT6=
EXTT7=
EXTT8=
EXTT9=
EXTT10=
PLAYORDER=
